<svg width="24" height="24" viewBox="0 0 24 24" fill="none" xmlns="http://www.w3.org/2000/svg">
<path d="M12 2C6.48437 2 2 6.48437 2 12C2 17.0052 5.69792 21.1458 10.5 21.875V14.5H8.5C8.22396 14.5 8 14.276 8 14V12.5C8 12.224 8.22396 12 8.5 12H10.5V10.1823C10.5 7.80729 11.7135 6.5 13.9167 6.5C14.8125 6.5 15.5156 6.5625 15.5417 6.5625C15.8021 6.58854 16 6.80208 16 7.0625V8.75C16 9.02604 15.776 9.25 15.5 9.25H14.5C13.9479 9.25 13.5 9.69792 13.5 10.25V12H15.5C15.6458 12 15.7813 12.0625 15.875 12.1667C15.9688 12.276 16.0156 12.4219 15.9948 12.5625L15.8073 14.0625C15.776 14.3125 15.5625 14.5 15.3125 14.5H13.5V21.875C18.3021 21.1458 22 17.0052 22 12C22 6.48437 17.5156 2 12 2Z" fill="white"/>
</svg>
