<svg width="50" height="50" viewBox="0 0 50 50" fill="none" xmlns="http://www.w3.org/2000/svg">
<path d="M25 6.25C23.3424 6.25 21.7526 6.90848 20.5805 8.08058C19.4084 9.25269 18.75 10.8424 18.75 12.5C18.75 14.1576 19.4084 15.7473 20.5805 16.9194C21.7526 18.0915 23.3424 18.75 25 18.75C26.6576 18.75 28.2473 18.0915 29.4194 16.9194C30.5915 15.7473 31.25 14.1576 31.25 12.5C31.25 10.8424 30.5915 9.25269 29.4194 8.08058C28.2473 6.90848 26.6576 6.25 25 6.25ZM11.4583 8.33333C10.077 8.33333 8.7522 8.88207 7.77544 9.85882C6.79869 10.8356 6.24996 12.1603 6.24996 13.5417C6.24996 14.923 6.79869 16.2478 7.77544 17.2245C8.7522 18.2013 10.077 18.75 11.4583 18.75C12.8396 18.75 14.1644 18.2013 15.1411 17.2245C16.1179 16.2478 16.6666 14.923 16.6666 13.5417C16.6666 12.1603 16.1179 10.8356 15.1411 9.85882C14.1644 8.88207 12.8396 8.33333 11.4583 8.33333ZM38.5416 8.33333C37.1603 8.33333 35.8355 8.88207 34.8588 9.85882C33.882 10.8356 33.3333 12.1603 33.3333 13.5417C33.3333 14.923 33.882 16.2478 34.8588 17.2245C35.8355 18.2013 37.1603 18.75 38.5416 18.75C39.923 18.75 41.2477 18.2013 42.2245 17.2245C43.2012 16.2478 43.75 14.923 43.75 13.5417C43.75 12.1603 43.2012 10.8356 42.2245 9.85882C41.2477 8.88207 39.923 8.33333 38.5416 8.33333ZM25 43.75C19.8312 43.75 15.625 39.5437 15.625 34.375V24.4792C15.625 22.4688 17.2604 20.8333 19.2708 20.8333H30.7291C32.7395 20.8333 34.375 22.4688 34.375 24.4792V34.375C34.375 39.5437 30.1687 43.75 25 43.75ZM13.5416 34.375V24.4792C13.5416 23.0958 14.0354 21.825 14.8552 20.8333H7.81246C5.80204 20.8333 4.16663 22.4688 4.16663 24.4792V31.25C4.16663 35.8437 7.90621 39.5833 12.5 39.5833C13.2395 39.5833 13.9583 39.4896 14.6458 39.3021C14.6458 39.3021 14.6573 39.2969 14.6666 39.2938C13.9531 37.801 13.5416 36.1365 13.5416 34.375ZM36.4583 34.375V24.4792C36.4583 23.0958 35.9645 21.825 35.1447 20.8333H42.1875C44.1979 20.8333 45.8333 22.4688 45.8333 24.4792V31.25C45.8333 35.8437 42.0937 39.5833 37.5 39.5833C36.7604 39.5833 36.0416 39.4896 35.3541 39.3021C35.3541 39.3021 35.3427 39.2969 35.3333 39.2938C36.0468 37.801 36.4583 36.1365 36.4583 34.375Z" fill="#2060B6"/>
</svg>
