<svg width="60" height="60" viewBox="0 0 60 60" fill="none" xmlns="http://www.w3.org/2000/svg">
<path d="M28.8575 3.72563C28.4575 3.73395 28.0708 3.86994 27.7536 4.11371C27.4365 4.35749 27.2056 4.69629 27.0948 5.08061L26.4112 7.3438L24.6167 6.79936C24.1405 6.65686 23.6261 6.70841 23.1861 6.94341C22.7473 7.17841 22.4179 7.57794 22.2754 8.05669L15.4566 30.857C15.1603 31.847 15.7203 32.8885 16.709 33.1885L23.8867 35.3638C24.0655 35.4176 24.2487 35.4444 24.4312 35.4444C24.7387 35.4444 25.0449 35.3685 25.3199 35.2198C25.7586 34.9848 26.0856 34.5828 26.2281 34.1041L27.6221 29.4385C26.0196 28.0648 25 26.0288 25 23.75C25 19.9313 27.8566 16.7872 31.5479 16.3184L33.0469 11.3062C33.3432 10.3162 32.7832 9.27466 31.7945 8.97466L30 8.43022L30.6836 6.16948C30.7742 5.88522 30.7956 5.58346 30.7461 5.28926C30.6966 4.99506 30.5776 4.71692 30.399 4.47794C30.2204 4.23896 29.9874 4.04603 29.7193 3.91519C29.4512 3.78435 29.1557 3.71936 28.8575 3.72563ZM32.5 18.75C31.1739 18.75 29.9022 19.2768 28.9645 20.2145C28.0268 21.1522 27.5 22.424 27.5 23.75C27.5 25.0761 28.0268 26.3479 28.9645 27.2856C29.9022 28.2233 31.1739 28.75 32.5 28.75C33.8261 28.75 35.0979 28.2233 36.0356 27.2856C36.9732 26.3479 37.5 25.0761 37.5 23.75C37.5 22.424 36.9732 21.1522 36.0356 20.2145C35.0979 19.2768 33.8261 18.75 32.5 18.75ZM39.8926 22.5293C39.9576 22.9281 40 23.3338 40 23.75C40 24.695 39.8183 25.5945 39.4995 26.4283C44.272 28.6308 47.5 33.4664 47.5 38.9039C47.5 46.4801 41.336 52.6441 33.7598 52.6441C27.3471 52.6441 21.7831 48.1312 20.3711 41.98L26.3233 43.8111C26.5597 43.8874 26.8089 43.916 27.0564 43.8952C27.3039 43.8745 27.5449 43.8047 27.7652 43.69C27.9856 43.5753 28.181 43.418 28.34 43.2272C28.499 43.0364 28.6186 42.8159 28.6917 42.5784C28.7648 42.341 28.79 42.0915 28.7658 41.8442C28.7417 41.597 28.6686 41.357 28.5509 41.1383C28.4332 40.9195 28.2733 40.7263 28.0803 40.5699C27.8873 40.4135 27.6652 40.2969 27.4268 40.2271L11.1768 35.2271C10.9976 35.1693 10.8108 35.1389 10.6226 35.1368C10.1697 35.1317 9.73028 35.2907 9.3855 35.5844C9.04073 35.8781 8.8139 36.2866 8.74693 36.7346C8.67997 37.1825 8.77738 37.6395 9.02119 38.0212C9.26499 38.4029 9.6387 38.6835 10.0733 38.8111L16.4698 40.7789C16.4309 40.9791 16.4171 41.1857 16.4478 41.399C17.1031 45.9761 19.551 49.9392 23.003 52.6441H18.125C17.8766 52.6406 17.6299 52.6865 17.3993 52.7791C17.1688 52.8718 16.9589 53.0093 16.782 53.1838C16.605 53.3582 16.4645 53.5661 16.3686 53.7954C16.2727 54.0246 16.2233 54.2706 16.2233 54.5191C16.2233 54.7676 16.2727 55.0136 16.3686 55.2428C16.4645 55.472 16.605 55.6799 16.782 55.8544C16.9589 56.0289 17.1688 56.1664 17.3993 56.2591C17.6299 56.3517 17.8766 56.3976 18.125 56.3941H49.375C49.6235 56.3976 49.8702 56.3517 50.1007 56.2591C50.3313 56.1664 50.5411 56.0289 50.7181 55.8544C50.895 55.6799 51.0355 55.472 51.1314 55.2428C51.2273 55.0136 51.2767 54.7676 51.2767 54.5191C51.2767 54.2706 51.2273 54.0246 51.1314 53.7954C51.0355 53.5661 50.895 53.3582 50.7181 53.1838C50.5411 53.0093 50.3313 52.8718 50.1007 52.7791C49.8702 52.6865 49.6235 52.6406 49.375 52.6441H44.5459C48.6194 49.439 51.25 44.4773 51.25 38.9039C51.25 31.5464 46.6076 25.0493 39.8926 22.5293Z" fill="#2060B6"/>
</svg>
