<svg width="50" height="50" viewBox="0 0 50 50" fill="none" xmlns="http://www.w3.org/2000/svg">
<g clip-path="url(#clip0_116_3934)">
<path d="M25 4.16663C21.4113 4.16663 17.9793 4.8754 14.8418 6.15027C14.5882 6.25313 14.3574 6.40493 14.1625 6.59699C13.9676 6.78905 13.8125 7.01762 13.7059 7.26964C13.4907 7.77862 13.4866 8.35223 13.6943 8.8643C13.7972 9.11785 13.9489 9.34865 14.141 9.54354C14.3331 9.73842 14.5616 9.89357 14.8137 10.0001C15.3226 10.2153 15.8963 10.2195 16.4083 10.0118C19.0645 8.93246 21.9596 8.33329 25 8.33329C28.387 8.33329 31.6082 9.10734 34.5358 10.4716C34.7841 10.5906 35.0537 10.6592 35.3287 10.6734C35.6038 10.6877 35.8789 10.6472 36.1383 10.5544C36.3976 10.4616 36.636 10.3183 36.8396 10.1328C37.0432 9.9473 37.208 9.72327 37.3244 9.47367C37.4409 9.22407 37.5067 8.95385 37.5181 8.67865C37.5294 8.40345 37.4861 8.12873 37.3906 7.87038C37.2951 7.61202 37.1494 7.37517 36.9618 7.1735C36.7742 6.97184 36.5484 6.80938 36.2976 6.69552C32.8544 5.09098 29.0235 4.16663 25 4.16663ZM9.35469 9.65369C8.88535 9.66323 8.43299 9.83098 8.07092 10.1298C6.8513 11.1091 5.72006 12.1914 4.68754 13.3626C4.49869 13.5665 4.35255 13.8061 4.25771 14.0674C4.16287 14.3286 4.12126 14.6062 4.13532 14.8837C4.14938 15.1613 4.21883 15.4333 4.33958 15.6836C4.46033 15.9339 4.62993 16.1575 4.83842 16.3413C5.0469 16.5251 5.29005 16.6653 5.55354 16.7537C5.81703 16.8421 6.09554 16.8769 6.37268 16.856C6.64982 16.8351 6.91998 16.759 7.16725 16.6322C7.41453 16.5053 7.63393 16.3302 7.81254 16.1173C8.68835 15.1239 9.64669 14.2079 10.6792 13.3789C11.0239 13.1096 11.2751 12.7387 11.3973 12.3187C11.5195 11.8987 11.5063 11.4509 11.3598 11.0388C11.2133 10.6267 10.9408 10.2711 10.5809 10.0225C10.221 9.77392 9.792 9.64488 9.35469 9.65369ZM26.8942 10.5489C25.9343 10.6383 25.1287 11.3936 25.0102 12.3962C24.8852 13.542 25.7076 14.5722 26.8535 14.6972C32.2819 15.3044 36.8565 18.4529 39.4226 22.9166H36.906C36.8715 22.8587 36.8532 22.795 36.8124 22.7396C34.0728 18.9375 29.6459 16.6666 25 16.6666C20.0512 16.6666 15.6844 19.1419 13.0534 22.9166H10.61C12.7192 19.291 16.1572 16.4722 20.3756 15.2506C21.4798 14.9277 22.1145 13.771 21.7916 12.6668C21.4687 11.5626 20.312 10.9279 19.2078 11.2508C13.1769 13.0044 8.38469 17.3809 5.94283 22.9166H1.56254C1.35549 22.9137 1.14992 22.952 0.957782 23.0292C0.765644 23.1064 0.590768 23.221 0.443315 23.3664C0.295863 23.5118 0.178775 23.685 0.0988565 23.876C0.0189382 24.067 -0.0222168 24.2721 -0.0222168 24.4791C-0.0222168 24.6862 0.0189382 24.8912 0.0988565 25.0822C0.178775 25.2733 0.295863 25.4465 0.443315 25.5919C0.590768 25.7373 0.765644 25.8519 0.957782 25.9291C1.14992 26.0063 1.35549 26.0446 1.56254 26.0416H48.4375C48.6446 26.0446 48.8502 26.0063 49.0423 25.9291C49.2344 25.8519 49.4093 25.7373 49.5568 25.5919C49.7042 25.4465 49.8213 25.2733 49.9012 25.0822C49.9811 24.8912 50.0223 24.6862 50.0223 24.4791C50.0223 24.2721 49.9811 24.067 49.9012 23.876C49.8213 23.685 49.7042 23.5118 49.5568 23.3664C49.4093 23.221 49.2344 23.1064 49.0423 23.0292C48.8502 22.952 48.6446 22.9137 48.4375 22.9166H44.0756C41.1811 16.2504 34.9147 11.4038 27.3133 10.5529C27.1713 10.5373 27.0313 10.5361 26.8942 10.5489ZM25 20.8333C27.243 20.8333 29.4068 21.5911 31.1849 22.9166H18.7928C20.5292 21.6195 22.6735 20.8333 25 20.8333ZM4.27046 29.1666C4.19755 29.8541 4.1667 30.552 4.1667 31.25C4.1667 32.1979 4.20813 33.74 4.43729 35.6567C4.56229 36.7192 5.46879 37.5 6.51045 37.5C6.58337 37.5 6.66719 37.5002 6.75052 37.4898C7.89636 37.3544 8.70886 36.312 8.57344 35.1766C8.37552 33.4474 8.33337 32.0833 8.33337 31.25C8.33337 30.552 8.37414 29.8541 8.45747 29.1666H4.27046ZM10.5632 29.1666C10.4694 29.8437 10.4167 30.5416 10.4167 31.25C10.4167 32.5312 10.5515 37.1358 12.3536 42.3441C12.6556 43.2087 13.4584 43.75 14.323 43.75C14.5521 43.75 14.7817 43.7089 15.0004 43.636C16.0942 43.261 16.6674 42.0725 16.2924 40.9891C14.6674 36.2704 14.5834 32.052 14.5834 31.25C14.5834 30.5312 14.6555 29.8333 14.7909 29.1666H10.5632ZM16.9271 29.1666C16.7605 29.8333 16.6667 30.5312 16.6667 31.25C16.6667 32.6458 16.8855 39.9173 21.0938 45.9798C21.5 46.5631 22.1465 46.875 22.8028 46.875C23.2194 46.875 23.6243 46.7506 23.9889 46.5006C24.9368 45.8444 25.166 44.5514 24.5097 43.6035C20.9368 38.4576 20.8334 31.9687 20.8334 31.25C20.8334 30.4895 21.0407 29.7812 21.3949 29.1666H16.9271ZM25 29.1666C23.8542 29.1666 22.9167 30.1041 22.9167 31.25C22.9167 31.5833 22.9686 39.4585 27.6978 44.1772L28.7395 45.2189C29.1457 45.6251 29.6771 45.8333 30.2084 45.8333C30.7396 45.8333 31.271 45.6251 31.6773 45.2189C32.5002 44.4064 32.5002 43.0935 31.6773 42.281L30.6356 41.2394C27.1669 37.7602 27.0834 31.3645 27.0834 31.25C27.0834 30.0937 26.1459 29.1666 25 29.1666ZM28.6052 29.1666C28.9593 29.7708 29.1667 30.4895 29.1667 31.25C29.198 33.2291 30.0308 37.0719 31.7912 39.3636C32.6662 40.499 34.3541 42.0104 34.552 42.1875C35.4062 42.9479 36.7294 42.8646 37.4899 42.0105C38.2503 41.1459 38.1774 39.8333 37.3129 39.0625C36.9066 38.7083 35.6349 37.5204 35.0932 36.8225C33.9578 35.3433 33.3542 32.4072 33.3334 31.2093C33.3334 30.5009 33.2396 29.8229 33.073 29.1666H28.6052ZM37.4268 29.1666C36.281 29.2083 35.375 30.1774 35.4167 31.3232C35.4271 31.5836 35.4998 32.9486 35.9477 34.084C37.1248 37.1049 40.4273 38.6982 40.7919 38.8753C41.0731 39.0003 41.375 39.0625 41.6667 39.0625C42.448 39.0625 43.1985 38.6144 43.5527 37.854C44.0319 36.8123 43.5832 35.5827 42.5415 35.0931C41.9895 34.8327 40.3128 33.812 39.8336 32.5724C39.6982 32.2391 39.6042 31.5934 39.5834 31.1767C39.5417 30.0517 38.6558 29.1666 37.5204 29.1666H37.4268ZM41.51 29.1666C41.5725 29.552 41.6052 29.9368 41.626 30.3222C41.6885 31.4368 42.6034 32.2916 43.6971 32.2916H43.8233C44.9691 32.2291 45.843 31.2402 45.7805 30.0944C45.7596 29.7819 45.7405 29.4687 45.7093 29.1666H41.51Z" fill="#2060B6"/>
</g>
<defs>
<clipPath id="clip0_116_3934">
<rect width="50" height="50" fill="white"/>
</clipPath>
</defs>
</svg>
