<svg width="60" height="60" viewBox="0 0 60 60" fill="none" xmlns="http://www.w3.org/2000/svg">
<path d="M30 5C29.6637 5 29.3277 5.08975 29.0283 5.271L12.0166 15.5835C9.06157 17.3735 7.49997 19.98 7.49997 23.125C7.49997 24.1612 8.33997 25 9.37497 25H50.625C51.66 25 52.5 24.1612 52.5 23.125C52.5 19.98 50.9384 17.3735 47.9834 15.5835L30.9716 5.271C30.6723 5.08975 30.3362 5 30 5ZM30 13.75C31.3812 13.75 32.5 14.8687 32.5 16.25C32.5 17.6312 31.3812 18.75 30 18.75C28.6187 18.75 27.5 17.6312 27.5 16.25C27.5 14.8687 28.6187 13.75 30 13.75ZM14.3457 27.4731C13.8488 27.4809 13.3754 27.6856 13.0293 28.0422C12.6832 28.3988 12.4928 28.8781 12.5 29.375V45.625C12.5 46.1223 12.6976 46.5991 13.0492 46.9508C13.4008 47.3024 13.8777 47.4999 14.375 47.5H45.625C46.1222 47.4999 46.5991 47.3024 46.9507 46.9508C47.3024 46.5991 47.4999 46.1223 47.5 45.625V29.375C47.5035 29.1265 47.4576 28.8799 47.3649 28.6493C47.2723 28.4187 47.1347 28.2089 46.9603 28.0319C46.7858 27.855 46.5779 27.7145 46.3487 27.6186C46.1195 27.5227 45.8735 27.4733 45.625 27.4733C45.3765 27.4733 45.1305 27.5227 44.9012 27.6186C44.672 27.7145 44.4641 27.855 44.2897 28.0319C44.1152 28.2089 43.9777 28.4187 43.885 28.6493C43.7924 28.8799 43.7465 29.1265 43.75 29.375V43.75H41.25V29.375C41.2535 29.1265 41.2076 28.8799 41.1149 28.6493C41.0223 28.4187 40.8847 28.2089 40.7103 28.0319C40.5358 27.855 40.3279 27.7145 40.0987 27.6186C39.8695 27.5227 39.6235 27.4733 39.375 27.4733C39.1265 27.4733 38.8805 27.5227 38.6512 27.6186C38.422 27.7145 38.2141 27.855 38.0397 28.0319C37.8652 28.2089 37.7277 28.4187 37.635 28.6493C37.5424 28.8799 37.4965 29.1265 37.5 29.375V43.75H35V29.375C35.0035 29.1265 34.9576 28.8799 34.8649 28.6493C34.7723 28.4187 34.6347 28.2089 34.4603 28.0319C34.2858 27.855 34.0779 27.7145 33.8487 27.6186C33.6195 27.5227 33.3735 27.4733 33.125 27.4733C32.8765 27.4733 32.6305 27.5227 32.4012 27.6186C32.172 27.7145 31.9641 27.855 31.7897 28.0319C31.6152 28.2089 31.4777 28.4187 31.385 28.6493C31.2924 28.8799 31.2465 29.1265 31.25 29.375V43.75H28.75V29.375C28.7535 29.1265 28.7076 28.8799 28.6149 28.6493C28.5223 28.4187 28.3847 28.2089 28.2103 28.0319C28.0358 27.855 27.8279 27.7145 27.5987 27.6186C27.3695 27.5227 27.1235 27.4733 26.875 27.4733C26.6265 27.4733 26.3805 27.5227 26.1512 27.6186C25.922 27.7145 25.7141 27.855 25.5397 28.0319C25.3652 28.2089 25.2277 28.4187 25.135 28.6493C25.0424 28.8799 24.9965 29.1265 25 29.375V43.75H22.5V29.375C22.5035 29.1265 22.4576 28.8799 22.3649 28.6493C22.2723 28.4187 22.1347 28.2089 21.9603 28.0319C21.7858 27.855 21.5779 27.7145 21.3487 27.6186C21.1195 27.5227 20.8735 27.4733 20.625 27.4733C20.3765 27.4733 20.1305 27.5227 19.9012 27.6186C19.672 27.7145 19.4641 27.855 19.2897 28.0319C19.1152 28.2089 18.9777 28.4187 18.885 28.6493C18.7924 28.8799 18.7465 29.1265 18.75 29.375V43.75H16.25V29.375C16.2536 29.124 16.2068 28.8749 16.1123 28.6424C16.0178 28.4099 15.8777 28.1987 15.7001 28.0213C15.5225 27.8439 15.3111 27.704 15.0785 27.6099C14.8458 27.5157 14.5966 27.4692 14.3457 27.4731ZM9.37497 50C9.12651 49.9965 8.87983 50.0424 8.64927 50.135C8.4187 50.2277 8.20885 50.3652 8.03191 50.5397C7.85496 50.7142 7.71446 50.922 7.61855 51.1513C7.52265 51.3805 7.47327 51.6265 7.47327 51.875C7.47327 52.1235 7.52265 52.3695 7.61855 52.5987C7.71446 52.828 7.85496 53.0358 8.03191 53.2103C8.20885 53.3848 8.4187 53.5223 8.64927 53.615C8.87983 53.7076 9.12651 53.7535 9.37497 53.75H50.625C50.8734 53.7535 51.1201 53.7076 51.3507 53.615C51.5812 53.5223 51.7911 53.3848 51.968 53.2103C52.145 53.0358 52.2855 52.828 52.3814 52.5987C52.4773 52.3695 52.5267 52.1235 52.5267 51.875C52.5267 51.6265 52.4773 51.3805 52.3814 51.1513C52.2855 50.922 52.145 50.7142 51.968 50.5397C51.7911 50.3652 51.5812 50.2277 51.3507 50.135C51.1201 50.0424 50.8734 49.9965 50.625 50H9.37497Z" fill="#2060B6"/>
</svg>
