<svg width="50" height="50" viewBox="0 0 50 50" fill="none" xmlns="http://www.w3.org/2000/svg">
<path d="M37.5 5.20837C35.5521 5.20837 33.7206 5.96752 32.3445 7.3446L25.1159 14.5732L24.0844 13.5417L22.4589 15.1673C22.1537 15.4725 21.7541 15.625 21.3541 15.625C20.9541 15.625 20.5546 15.4725 20.2494 15.1673C19.639 14.5569 19.639 13.5682 20.2494 12.9578L21.875 11.3322L19.9178 9.37504L18.2922 11.0006C17.988 11.3058 17.5875 11.4584 17.1875 11.4584C16.7875 11.4584 16.3879 11.3058 16.0827 11.0006C15.4723 10.3902 15.4723 9.40155 16.0827 8.79114L17.7083 7.16557L16.8192 6.27649C15.4421 4.89941 13.0388 4.90045 11.6638 6.27649L6.27642 11.6618C5.58684 12.3504 5.2083 13.2666 5.2083 14.2416C5.2083 15.2155 5.58788 16.1297 6.27642 16.8193L14.5731 25.116L9.28545 30.4017C8.85003 30.8392 8.52954 31.3836 8.35975 31.9764L5.2673 42.7999C5.1121 43.3458 5.26398 43.9329 5.66607 44.3339C5.96398 44.6308 6.36143 44.7917 6.7708 44.7917C6.91455 44.7917 7.05842 44.7713 7.20008 44.7307L18.0237 41.6403C18.6205 41.4694 19.165 41.1459 19.5984 40.7105L24.884 35.4269L33.3598 43.9026C34.0712 44.6141 35.0031 44.9687 35.9375 44.9687C36.8718 44.9687 37.8037 44.613 38.5152 43.9026L43.9026 38.5153C45.3234 37.0944 45.3234 34.7807 43.9026 33.3598L42.8344 32.2917L41.2089 33.9173C40.9047 34.2225 40.5041 34.375 40.1041 34.375C39.7041 34.375 39.3046 34.2225 38.9994 33.9173C38.389 33.3069 38.389 32.3182 38.9994 31.7078L40.625 30.0822L38.6678 28.125L37.0422 29.7506C36.738 30.0558 36.3375 30.2084 35.9375 30.2084C35.5375 30.2084 35.1379 30.0558 34.8327 29.7506C34.2223 29.1402 34.2223 28.1516 34.8327 27.5411L36.4583 25.9156L35.4268 24.8841L42.6554 17.6555C44.0325 16.2794 44.7916 14.448 44.7916 12.5C44.7916 10.5521 44.0314 8.72065 42.6554 7.3446C41.2783 5.96752 39.4479 5.20837 37.5 5.20837ZM37.5 8.33337C38.6125 8.33337 39.6595 8.76658 40.4459 9.55408C41.2334 10.3416 41.6666 11.3875 41.6666 12.5C41.6666 13.6125 41.2334 14.6585 40.4459 15.446L38.4257 17.4663L32.5337 11.5743L34.556 9.55408C35.3415 8.76658 36.3875 8.33337 37.5 8.33337ZM30.3243 13.7838L36.2162 19.6757L17.3869 38.5051C17.3244 38.5676 17.2474 38.6113 17.1631 38.6353L9.04538 40.9546L11.3647 32.837C11.3887 32.7495 11.4345 32.6726 11.497 32.6091L30.3243 13.7838Z" fill="#2060B6"/>
</svg>
