<svg width="60" height="60" viewBox="0 0 60 60" fill="none" xmlns="http://www.w3.org/2000/svg">
<path d="M49.9512 7.4756C49.8589 7.47864 49.7668 7.48679 49.6753 7.50002H40C39.6688 7.49533 39.3398 7.55654 39.0324 7.68007C38.725 7.8036 38.4452 7.98701 38.2093 8.21962C37.9734 8.45223 37.786 8.72941 37.6581 9.03505C37.5303 9.3407 37.4644 9.6687 37.4644 10C37.4644 10.3313 37.5303 10.6593 37.6581 10.965C37.786 11.2706 37.9734 11.5478 38.2093 11.7804C38.4452 12.013 38.725 12.1964 39.0324 12.32C39.3398 12.4435 39.6688 12.5047 40 12.5H43.9649L37.7149 18.75H33.75C33.3184 18.75 32.8941 18.8618 32.5185 19.0744C32.1428 19.2871 31.8286 19.5933 31.6065 19.9634L28.584 25H23.75C23.3184 25 22.8941 25.1118 22.5185 25.3244C22.1428 25.5371 21.8286 25.8433 21.6065 26.2134L18.584 31.25H13.75C13.3184 31.25 12.8941 31.3618 12.5185 31.5744C12.1428 31.7871 11.8286 32.0933 11.6065 32.4634L7.85648 38.7134C7.68249 38.995 7.56615 39.3084 7.51423 39.6353C7.4623 39.9623 7.47582 40.2963 7.55399 40.6179C7.63216 40.9396 7.77343 41.2426 7.96961 41.5092C8.16579 41.7759 8.41297 42.0009 8.6968 42.1713C8.98063 42.3416 9.29547 42.4539 9.62305 42.5016C9.95063 42.5494 10.2844 42.5316 10.6051 42.4493C10.9257 42.367 11.2268 42.2218 11.4909 42.0223C11.755 41.8227 11.9769 41.5726 12.1436 41.2866L15.166 36.25H20C20.4317 36.25 20.856 36.1382 21.2316 35.9256C21.6072 35.713 21.9214 35.4067 22.1436 35.0366L25.166 30H30C30.4317 30 30.856 29.8882 31.2316 29.6756C31.6072 29.463 31.9214 29.1567 32.1436 28.7866L35.166 23.75H38.75C39.413 23.7499 40.0488 23.4864 40.5176 23.0176L47.5 16.0352V20C47.4953 20.3313 47.5566 20.6602 47.6801 20.9676C47.8036 21.275 47.987 21.5548 48.2196 21.7908C48.4522 22.0267 48.7294 22.214 49.0351 22.3419C49.3407 22.4698 49.6687 22.5356 50 22.5356C50.3313 22.5356 50.6594 22.4698 50.965 22.3419C51.2706 22.214 51.5478 22.0267 51.7804 21.7908C52.013 21.5548 52.1964 21.275 52.32 20.9676C52.4435 20.6602 52.5047 20.3313 52.5 20V10.3052C52.5479 9.94619 52.5172 9.58107 52.41 9.23511C52.3029 8.88914 52.1218 8.57059 51.8794 8.30148C51.637 8.03238 51.339 7.81915 51.0061 7.67656C50.6732 7.53396 50.3132 7.46539 49.9512 7.4756ZM49.9634 26.2158C49.3008 26.2255 48.6691 26.4979 48.2072 26.9731C47.7453 27.4483 47.491 28.0874 47.5 28.75V50C47.4953 50.3313 47.5566 50.6602 47.6801 50.9676C47.8036 51.275 47.987 51.5548 48.2196 51.7908C48.4522 52.0267 48.7294 52.214 49.0351 52.3419C49.3407 52.4698 49.6687 52.5356 50 52.5356C50.3313 52.5356 50.6594 52.4698 50.965 52.3419C51.2706 52.214 51.5478 52.0267 51.7804 51.7908C52.013 51.5548 52.1964 51.275 52.32 50.9676C52.4435 50.6602 52.5047 50.3313 52.5 50V28.75C52.5046 28.4158 52.4421 28.084 52.3162 27.7743C52.1903 27.4646 52.0036 27.1833 51.7671 26.947C51.5306 26.7108 51.2491 26.5243 50.9393 26.3987C50.6295 26.2731 50.2977 26.2109 49.9634 26.2158ZM39.9634 28.7158C39.3008 28.7255 38.6691 28.9979 38.2072 29.4731C37.7453 29.9483 37.491 30.5874 37.5 31.25V50C37.4953 50.3313 37.5566 50.6602 37.6801 50.9676C37.8036 51.275 37.987 51.5548 38.2196 51.7908C38.4522 52.0267 38.7294 52.214 39.0351 52.3419C39.3407 52.4698 39.6687 52.5356 40 52.5356C40.3313 52.5356 40.6594 52.4698 40.965 52.3419C41.2706 52.214 41.5478 52.0267 41.7804 51.7908C42.013 51.5548 42.1964 51.275 42.32 50.9676C42.4435 50.6602 42.5047 50.3313 42.5 50V31.25C42.5046 30.9158 42.4421 30.584 42.3162 30.2743C42.1903 29.9646 42.0036 29.6833 41.7671 29.447C41.5306 29.2108 41.2491 29.0243 40.9393 28.8987C40.6295 28.7731 40.2977 28.7109 39.9634 28.7158ZM29.9634 33.7158C29.3008 33.7255 28.6691 33.9979 28.2072 34.4731C27.7453 34.9483 27.491 35.5874 27.5 36.25V50C27.4953 50.3313 27.5566 50.6602 27.6801 50.9676C27.8036 51.275 27.987 51.5548 28.2196 51.7908C28.4522 52.0267 28.7294 52.214 29.0351 52.3419C29.3407 52.4698 29.6687 52.5356 30 52.5356C30.3313 52.5356 30.6594 52.4698 30.965 52.3419C31.2706 52.214 31.5478 52.0267 31.7804 51.7908C32.013 51.5548 32.1964 51.275 32.32 50.9676C32.4435 50.6602 32.5047 50.3313 32.5 50V36.25C32.5046 35.9158 32.4421 35.584 32.3162 35.2743C32.1903 34.9646 32.0036 34.6833 31.7671 34.447C31.5306 34.2108 31.2491 34.0243 30.9393 33.8987C30.6295 33.7731 30.2977 33.7109 29.9634 33.7158ZM19.9634 39.9658C19.3008 39.9755 18.6691 40.2479 18.2072 40.7231C17.7453 41.1983 17.491 41.8374 17.5 42.5V50C17.4953 50.3313 17.5566 50.6602 17.6801 50.9676C17.8036 51.275 17.987 51.5548 18.2196 51.7908C18.4522 52.0267 18.7294 52.214 19.0351 52.3419C19.3407 52.4698 19.6687 52.5356 20 52.5356C20.3313 52.5356 20.6594 52.4698 20.965 52.3419C21.2706 52.214 21.5478 52.0267 21.7804 51.7908C22.013 51.5548 22.1964 51.275 22.32 50.9676C22.4435 50.6602 22.5047 50.3313 22.5 50V42.5C22.5046 42.1658 22.4421 41.834 22.3162 41.5243C22.1903 41.2146 22.0036 40.9333 21.7671 40.697C21.5306 40.4608 21.2491 40.2743 20.9393 40.1487C20.6295 40.0231 20.2977 39.9609 19.9634 39.9658ZM9.96341 46.2158C9.3008 46.2255 8.66914 46.4979 8.20724 46.9731C7.74534 47.4483 7.49097 48.0874 7.50003 48.75V50C7.49535 50.3313 7.55655 50.6602 7.68009 50.9676C7.80362 51.275 7.98702 51.5548 8.21963 51.7908C8.45224 52.0267 8.72943 52.214 9.03507 52.3419C9.34071 52.4698 9.66872 52.5356 10 52.5356C10.3313 52.5356 10.6594 52.4698 10.965 52.3419C11.2706 52.214 11.5478 52.0267 11.7804 51.7908C12.013 51.5548 12.1964 51.275 12.32 50.9676C12.4435 50.6602 12.5047 50.3313 12.5 50V48.75C12.5046 48.4157 12.4421 48.084 12.3162 47.7743C12.1903 47.4646 12.0036 47.1833 11.7671 46.947C11.5306 46.7108 11.2491 46.5243 10.9393 46.3987C10.6295 46.2731 10.2977 46.2109 9.96341 46.2158Z" fill="#2060B6"/>
</svg>
