<svg width="60" height="60" viewBox="0 0 60 60" fill="none" xmlns="http://www.w3.org/2000/svg">
<path d="M25.625 5C24.5887 5 23.75 5.84 23.75 6.875V7.61963C23.75 8.82713 23.0281 9.90312 21.8481 10.3906C20.7256 10.8631 19.4499 10.6108 18.5962 9.7583L18.0688 9.23096C17.7176 8.87846 17.2407 8.6792 16.7432 8.6792C16.2457 8.6792 15.7675 8.87727 15.415 9.22852L9.22852 15.415C8.87602 15.7663 8.6792 16.2457 8.6792 16.7432C8.6792 17.2407 8.87846 17.7163 9.23096 18.0688L9.75586 18.5962C10.6096 19.4512 10.86 20.7266 10.3638 21.9141C9.90377 23.0291 8.82588 23.75 7.61963 23.75H6.875C5.83875 23.75 5 24.59 5 25.625V34.375C5 35.41 5.83875 36.25 6.875 36.25H7.61963C8.82588 36.25 9.90437 36.9706 10.3906 38.1519C10.8594 39.2744 10.6084 40.5525 9.75586 41.4062L9.23096 41.9336C8.87846 42.2848 8.6792 42.7605 8.6792 43.2593C8.6792 43.7555 8.87727 44.2349 9.22852 44.5874L15.415 50.7739C15.7663 51.1252 16.2457 51.3232 16.7432 51.3232C17.2407 51.3232 17.7163 51.124 18.0688 50.7715L18.5962 50.2466C19.4524 49.3928 20.7278 49.1412 21.9141 49.6387C23.0278 50.0962 23.75 51.1729 23.75 52.3804V53.125C23.75 54.16 24.5887 55 25.625 55H34.375C35.4112 55 36.25 54.16 36.25 53.125V52.3804C36.25 51.1729 36.9719 50.0969 38.1519 49.6094C39.2769 49.1406 40.5513 49.3904 41.4038 50.2417L41.9311 50.769C42.2824 51.1215 42.7593 51.3208 43.2568 51.3208C43.7543 51.3208 44.2325 51.1227 44.585 50.7715L50.7715 44.585C51.124 44.2337 51.3208 43.7543 51.3208 43.2568C51.3208 42.7593 51.1215 42.2836 50.769 41.9311L50.2441 41.4038C49.3904 40.5488 49.14 39.2734 49.6362 38.0859C50.0962 36.9709 51.1741 36.25 52.3804 36.25H53.125C54.1612 36.25 55 35.41 55 34.375V25.625C55 24.59 54.1612 23.75 53.125 23.75H52.3804C51.1741 23.75 50.0956 23.0294 49.6094 21.8481C49.1406 20.7256 49.3916 19.4475 50.2441 18.5937L50.769 18.0664C51.1215 17.7152 51.3208 17.2395 51.3208 16.7407C51.3208 16.2445 51.1227 15.7651 50.7715 15.4126L44.585 9.22607C44.2337 8.87482 43.7543 8.67676 43.2568 8.67676C42.7593 8.67676 42.2836 8.87602 41.9311 9.22852L41.4038 9.75342C40.5488 10.6084 39.2747 10.8601 38.0859 10.3613C36.9722 9.90383 36.25 8.82713 36.25 7.61963V6.875C36.25 5.84 35.4112 5 34.375 5H25.625ZM28.125 17.0239V24.1357C27.0177 24.4662 26.0122 24.9654 25.3174 25.7471C24.2446 26.954 23.75 28.4896 23.75 30C23.75 30.4573 23.8865 30.9052 23.9795 31.3574L17.8247 34.8877C17.2173 33.3761 16.875 31.7288 16.875 30C16.875 23.3896 21.7669 17.9359 28.125 17.0239ZM31.875 17.0239C38.2331 17.9359 43.125 23.3896 43.125 30C43.125 31.7288 42.7827 33.3761 42.1753 34.8877L36.0181 31.3672C36.1124 30.9118 36.25 30.4607 36.25 30C36.25 28.4896 35.7554 26.954 34.6826 25.7471C33.9878 24.9654 32.9823 24.4662 31.875 24.1357V17.0239ZM30 27.5C30.9896 27.5 31.4944 27.8036 31.8799 28.2373C32.2654 28.671 32.5 29.3229 32.5 30C32.5 30.6771 32.2654 31.329 31.8799 31.7627C31.4944 32.1964 30.9896 32.5 30 32.5C29.0104 32.5 28.5056 32.1964 28.1201 31.7627C27.7346 31.329 27.5 30.6771 27.5 30C27.5 29.3229 27.7346 28.671 28.1201 28.2373C28.5056 27.8036 29.0104 27.5 30 27.5ZM25.8276 34.6191C26.8945 35.5765 28.3162 36.25 30 36.25C31.6783 36.25 33.094 35.5784 34.1602 34.6265L40.2905 38.1299C37.8867 41.1689 34.1757 43.125 30 43.125C25.8231 43.125 22.1108 41.168 19.707 38.1274L25.8276 34.6191Z" fill="#2060B6"/>
</svg>
