<svg width="50" height="50" viewBox="0 0 50 50" fill="none" xmlns="http://www.w3.org/2000/svg">
<path d="M34.8958 2.11182C34.4458 2.11182 33.9959 2.28766 33.6995 2.64079C33.462 2.92308 30.0402 7.04167 27.3173 12.5C29.459 13.7021 31.4616 15.1276 33.1523 16.8193C42.821 26.488 42.3019 34.8663 40.9383 39.2965C43.4508 36.7288 45.8333 32.2808 45.8333 24.6277C45.8333 14.3558 36.49 3.1137 36.0921 2.64079C35.7958 2.28766 35.3458 2.11182 34.8958 2.11182ZM5.86549 8.33944C5.40507 8.30194 4.95048 8.4661 4.62444 8.7911C4.2984 9.11818 4.13215 9.57173 4.17278 10.0321C4.23424 10.7415 5.77974 27.5001 14.1256 35.8459C20.4235 42.1449 26.0245 43.7805 30.1432 43.7805C31.4307 43.7805 32.5506 43.6129 33.5246 43.3858C33.3965 42.9671 33.2596 42.5346 33.1055 42.0898C28.094 27.6336 15.5057 19.5061 14.0869 18.6279L13.9852 18.5608C13.5144 18.2306 13.4007 17.5821 13.7309 17.1102C14.0611 16.6404 14.7117 16.5236 15.1815 16.8559C17.6044 18.3548 29.9374 26.5884 35.0749 41.4103C35.8468 43.6364 36.4156 46.0596 36.4604 46.4315C36.5197 47.2544 37.2043 47.8821 38.0168 47.8821C38.0543 47.8821 38.0932 47.8821 38.1307 47.88C38.9922 47.8175 39.6397 47.0681 39.5772 46.2077C39.5316 45.5682 38.9008 42.9997 38.1368 40.7247C39.4514 38.1764 42.698 29.3109 31.6793 18.2922C23.3345 9.94744 6.57486 8.39985 5.86549 8.33944Z" fill="#2060B6"/>
</svg>
