<svg width="24" height="24" viewBox="0 0 24 24" fill="none" xmlns="http://www.w3.org/2000/svg">
<path d="M8.25 2.5C5.07813 2.5 2.5 5.07813 2.5 8.25V15.75C2.5 18.9219 5.07813 21.5 8.25 21.5H15.75C18.9219 21.5 21.5 18.9219 21.5 15.75V8.25C21.5 5.07813 18.9219 2.5 15.75 2.5H8.25ZM17 6C17.5521 6 18 6.44792 18 7C18 7.55208 17.5521 8 17 8C16.4479 8 16 7.55208 16 7C16 6.44792 16.4479 6 17 6ZM12 7C14.7552 7 17 9.24479 17 12C17 14.7552 14.7552 17 12 17C9.24479 17 7 14.7552 7 12C7 9.24479 9.24479 7 12 7ZM12 8.5C10.0677 8.5 8.5 10.0677 8.5 12C8.5 13.9323 10.0677 15.5 12 15.5C13.9323 15.5 15.5 13.9323 15.5 12C15.5 10.0677 13.9323 8.5 12 8.5Z" fill="white"/>
</svg>
