<svg width="24" height="24" viewBox="0 0 24 24" fill="none" xmlns="http://www.w3.org/2000/svg">
<path d="M12.5625 22.2605C11.5052 22.8438 11.5469 21.9845 11.5938 21.724C11.6198 21.5678 11.7448 20.8282 11.7448 20.8282C11.7761 20.5626 11.8177 20.1511 11.7084 19.8855C11.5938 19.5938 11.125 19.4428 10.7865 19.3699C5.73962 18.7084 2.00525 15.198 2.00525 11.0105C2.00525 6.34383 6.71358 2.54175 12.5052 2.54175C18.2917 2.54175 23 6.34383 23 11.0105C23 16.2605 17.4375 19.5782 12.5625 22.2605ZM9.18233 12.922C9.18233 12.6407 8.95317 12.4167 8.67192 12.4167H7.24483V9.07821C7.24483 8.79696 7.01567 8.56779 6.73442 8.56779C6.45317 8.56779 6.224 8.79696 6.224 9.07821V12.922C6.224 13.2032 6.45317 13.4324 6.73442 13.4324H8.67192C8.95317 13.4324 9.18233 13.2032 9.18233 12.922ZM10.6771 9.07821C10.6771 8.79696 10.448 8.56779 10.1667 8.56779C9.88546 8.56779 9.65629 8.79696 9.65629 9.07821V12.922C9.65629 13.2032 9.88546 13.4324 10.1667 13.4324C10.448 13.4324 10.6771 13.2032 10.6771 12.922V9.07821ZM15.349 9.07821C15.349 8.79696 15.1198 8.56779 14.8386 8.56779C14.5521 8.56779 14.323 8.79696 14.323 9.07821V11.4584L12.3334 8.77092C12.2396 8.64592 12.0886 8.56779 11.9271 8.56779C11.8698 8.56779 11.8177 8.57821 11.7657 8.59383C11.5521 8.66675 11.4115 8.85946 11.4115 9.07821V12.922C11.4115 13.2032 11.6459 13.4324 11.9271 13.4324C12.2084 13.4324 12.4375 13.2032 12.4375 12.922V10.5417L14.4271 13.2292C14.5209 13.3542 14.6771 13.4324 14.8386 13.4324C14.8907 13.4324 14.948 13.422 15 13.4063C15.2084 13.3386 15.349 13.1407 15.349 12.922V9.07821ZM18.4896 10.4897H17.0573V9.58342H18.4896C18.7709 9.58342 19 9.35425 19 9.07821C19 8.79696 18.7709 8.56779 18.4896 8.56779H16.5469C16.2657 8.56779 16.0365 8.79696 16.0365 9.07821V12.922C16.0365 13.2032 16.2657 13.4324 16.5469 13.4324H18.4896C18.7709 13.4324 19 13.2032 19 12.922C19 12.6407 18.7709 12.4167 18.4896 12.4167H17.0573V11.5053H18.4896C18.7709 11.5053 19 11.2761 19 11.0001C19 10.7188 18.7709 10.4897 18.4896 10.4897Z" fill="white"/>
</svg>
