<svg width="39" height="39" viewBox="0 0 39 39" fill="none" xmlns="http://www.w3.org/2000/svg">
<g clip-path="url(#clip0_107_2592)">
<path d="M0.232422 11.1166V26.9974H38.3465V11.1166H0.232422ZM19.2895 12.7047C29.4383 12.7047 36.7584 15.5831 36.7584 19.057C36.7584 22.531 29.4383 25.4094 19.2895 25.4094C9.14059 25.4094 1.82051 22.531 1.82051 19.057C1.82051 15.5831 9.14887 12.7047 19.2895 12.7047ZM31.2828 16.6418C30.9602 16.6253 30.6873 16.8817 30.679 17.2042C30.6707 17.2125 30.6707 17.2291 30.6707 17.2456C30.6625 17.5765 30.9189 17.8494 31.258 17.8659C31.5889 17.8742 31.8701 17.6095 31.8866 17.2787V17.2456C31.8866 16.9147 31.6302 16.6418 31.2994 16.6418H31.2828ZM31.2415 16.7576H31.2746C31.5392 16.7493 31.7543 16.9561 31.7543 17.2208V17.2456C31.7708 17.5103 31.5558 17.7336 31.2911 17.7419C31.0181 17.7501 30.7948 17.5351 30.7948 17.2704V17.2373C30.7783 16.9809 30.9851 16.7659 31.2415 16.7576ZM6.70057 16.8817C6.76674 17.014 6.76674 17.1381 6.76674 17.2704V21.0752C6.76674 21.2075 6.76674 21.3316 6.70057 21.464H9.72786C9.66169 21.3316 9.66169 21.2075 9.66169 21.0752V17.2704C9.66169 17.1381 9.66169 17.014 9.72786 16.8817H6.70057ZM11.0513 16.8817C11.1174 17.014 11.1174 17.1381 11.1174 17.2704V21.0752C11.1174 21.2075 11.1174 21.3316 11.0513 21.464H13.8304C13.7642 21.3316 13.7642 21.2075 13.7642 21.0752V19.4788C13.7642 19.4788 14.5335 20.6368 14.6741 20.8519C14.8147 21.0669 14.947 21.3316 14.947 21.464H18.2886C18.1646 21.3482 18.0653 21.2158 17.9661 21.0752C17.7924 20.8105 16.4524 18.7675 16.4524 18.7675C16.4524 18.7758 17.354 17.6674 17.5111 17.4772C17.6931 17.2539 17.9164 17.014 18.1149 16.8817H15.2034C15.2034 17.014 15.0215 17.3035 14.8643 17.502C14.6575 17.775 13.7642 18.9329 13.7642 18.9329V17.2704C13.7642 17.1381 13.7642 17.014 13.8304 16.8817H11.0513ZM18.7766 16.8817C18.8428 17.014 18.8428 17.1381 18.8428 17.2704V21.0752C18.8428 21.2075 18.8428 21.3316 18.7766 21.464H24.153V20.1984C24.0124 20.2646 23.8883 20.2646 23.756 20.2646H21.4979V19.6608H23.665V18.6931H21.4979V18.0893H23.756C23.8883 18.0893 24.0206 18.0893 24.153 18.1472V16.8817H18.7766ZM31.0512 16.8817V17.6095H31.1505V17.3531H31.3076L31.4483 17.6095H31.5723L31.4152 17.3283C31.4896 17.287 31.5475 17.2042 31.5475 17.1133C31.5475 16.9892 31.4483 16.8899 31.3159 16.8817H31.0512ZM26.1794 16.8817C26.196 17.014 26.1464 17.1463 26.0967 17.2787L24.7154 21.0835C24.6741 21.2241 24.5996 21.3564 24.5086 21.4722H26.8081C26.7915 21.3399 26.8411 21.2158 26.8825 21.0835C26.9239 20.9429 26.9818 20.8188 26.9818 20.8188L27.0066 20.7444H28.6774L28.7105 20.8105C28.7684 20.9677 28.818 21.0752 28.818 21.0752C28.8676 21.2075 28.9172 21.3399 28.909 21.4722H31.8205C31.7212 21.3564 31.6468 21.2241 31.6054 21.0752C31.5061 20.8188 30.2572 17.5682 30.1414 17.2787C30.0918 17.1463 30.0256 17.0223 30.0587 16.8817H26.1794ZM31.1588 16.9892H31.3159C31.3821 16.9892 31.4317 17.0554 31.4317 17.1215C31.4317 17.196 31.3738 17.2456 31.2994 17.2456H31.1588V16.9892ZM27.8172 18.4118C27.842 18.5111 27.8751 18.6186 27.9081 18.7096L28.3134 19.7766H27.354C27.5525 19.2224 27.7262 18.7592 27.7344 18.7096C27.7758 18.6104 27.8006 18.5111 27.8172 18.4118Z" fill="#2C2C2C"/>
</g>
<defs>
<clipPath id="clip0_107_2592">
<rect width="38.1141" height="38.1141" fill="white" transform="translate(0.232422)"/>
</clipPath>
</defs>
</svg>
