<svg width="39" height="39" viewBox="0 0 39 39" fill="none" xmlns="http://www.w3.org/2000/svg">
<path d="M25.2902 1.56426C18.3106 2.91414 18.8267 9.80246 18.8346 9.86996C18.8664 10.2551 19.188 10.5449 19.5652 10.5449C19.5771 10.5449 19.593 10.5449 19.6049 10.5449C22.0545 10.4139 23.8649 9.66748 24.9885 8.3176C26.6877 6.27691 26.3185 3.41439 26.1597 2.19156C26.1319 1.99305 26.0287 1.81042 25.8619 1.69131C25.6952 1.57221 25.4927 1.52456 25.2902 1.56426ZM18.8029 11.2834C14.9597 11.2834 14.1657 13.7568 13.3955 16.1508C13.1414 16.9449 12.8754 17.7588 12.4902 18.6124C11.7955 20.3553 10.8664 21.4312 9.97312 22.4754C8.7106 23.9404 7.51953 25.322 7.51953 28.0615C7.51953 33.1712 11.6327 36.1012 18.8029 36.1012C25.9731 36.1012 30.0862 33.1712 30.0862 28.0615C30.0862 25.322 28.8952 23.9404 27.6326 22.4794C26.7393 21.4352 25.8103 20.3553 25.1036 18.5766C24.7304 17.7627 24.4644 16.9449 24.2103 16.1548C23.4401 13.7568 22.6461 11.2834 18.8029 11.2834Z" fill="#2C2C2C"/>
</svg>
