<svg width="39" height="39" viewBox="0 0 39 39" fill="none" xmlns="http://www.w3.org/2000/svg">
<g clip-path="url(#clip0_107_2583)">
<path d="M19.5574 1.68728C19.0115 1.7121 18.507 2.01813 18.2423 2.49787L12.8825 12.0264C12.6095 12.5061 12.6095 13.1017 12.8825 13.5814L17.837 22.3903H8.12649C7.58059 22.3903 7.07604 22.6633 6.78654 23.1265L0.864307 32.5061C0.549997 32.9941 0.533455 33.6144 0.814678 34.119C1.0959 34.6235 1.62526 34.9379 2.20425 34.9379H13.3209C13.875 34.9379 14.3879 34.6484 14.6774 34.1686L19.6732 25.9056L24.6691 34.1686C24.9586 34.6484 25.4714 34.9379 26.0256 34.9379H37.1422C37.7211 34.9379 38.2505 34.6235 38.5317 34.119C38.813 33.6144 38.7964 32.9941 38.4821 32.5061L32.5681 23.1265C32.2704 22.6633 31.7658 22.3903 31.2199 22.3903H21.4102L26.3647 13.5814C26.6376 13.1017 26.6376 12.5061 26.3647 12.0264L21.0049 2.49787C20.7154 1.97678 20.1529 1.66247 19.5574 1.68728Z" fill="#2C2C2C"/>
</g>
<defs>
<clipPath id="clip0_107_2583">
<rect width="38.1141" height="38.1141" fill="white" transform="translate(0.616211)"/>
</clipPath>
</defs>
</svg>
