<svg width="39" height="39" viewBox="0 0 39 39" fill="none" xmlns="http://www.w3.org/2000/svg">
<path d="M18.5246 3.0094C9.60747 3.0094 2.35388 10.263 2.35388 19.1801C2.35388 28.0972 9.60747 35.3508 18.5246 35.3508C20.8511 35.3508 23.1062 34.8585 25.2303 33.8858C25.4963 33.7627 25.671 33.4967 25.671 33.2029V23.7935C25.671 23.4679 25.4605 23.1781 25.1469 23.0788C24.8372 22.9796 24.4998 23.0908 24.3092 23.3568C22.9633 25.2148 20.8035 26.3225 18.5246 26.3225C14.5861 26.3225 11.3782 23.1185 11.3782 19.1801C11.3782 15.2377 14.5861 12.0337 18.5246 12.0337C20.8035 12.0337 22.9633 13.1454 24.3092 15.0034C24.4998 15.2655 24.8372 15.3806 25.1509 15.2774C25.4605 15.1781 25.671 14.8883 25.671 14.5627V5.15729C25.671 4.85952 25.4963 4.59352 25.2303 4.47044C23.1062 3.50171 20.8511 3.0094 18.5246 3.0094ZM27.9856 6.31262C27.8506 6.30071 27.7117 6.32453 27.5846 6.39202C27.3345 6.51907 27.1717 6.77714 27.1717 7.06299V31.2496C27.1717 31.5354 27.3345 31.7974 27.5886 31.9245C27.6958 31.9761 27.8109 32.0039 27.926 32.0039C28.0849 32.0039 28.2437 31.9523 28.3787 31.853C32.1027 29.0501 35.3067 24.7702 37.6372 19.4818C37.7206 19.2952 37.7245 19.0808 37.6451 18.8903C35.4496 13.5861 32.2417 9.28631 28.3707 6.45158C28.2556 6.3682 28.1206 6.32056 27.9856 6.31262Z" fill="#2C2C2C"/>
</svg>
