<svg width="39" height="39" viewBox="0 0 39 39" fill="none" xmlns="http://www.w3.org/2000/svg">
<g clip-path="url(#clip0_107_2607)">
<path d="M29.7113 9.51198C24.2771 9.68568 18.3135 11.7866 13.177 14.0116C6.33666 16.9727 0.976872 20.3308 0.976872 20.3308C0.306899 20.7444 0.0422179 21.5881 0.356527 22.3077C0.670835 23.0273 1.45661 23.416 2.21757 23.2175C10.2903 21.1083 15.3689 20.7361 18.1894 21.2158C19.6038 21.4557 20.4144 21.8776 20.8693 22.2911C21.3325 22.713 21.5145 23.1265 21.5889 23.722C21.7378 24.9048 21.1257 26.7659 20.34 28.2464C19.5625 29.727 18.7353 30.7857 18.7353 30.7857C18.2556 31.3978 18.2887 32.2663 18.818 32.837C19.3391 33.4077 20.1993 33.5153 20.8528 33.0934C20.8528 33.0934 25.0959 30.3391 29.3722 26.708C31.5145 24.8966 33.6733 22.8618 35.3523 20.7775C37.0314 18.6931 38.3217 16.5674 38.3465 14.2432C38.3548 13.3912 38.148 12.4317 37.5442 11.6377C36.9322 10.8519 36.0058 10.3474 34.9305 10.0579C33.2845 9.61951 31.531 9.46235 29.7113 9.51198Z" fill="#2C2C2C"/>
</g>
<defs>
<clipPath id="clip0_107_2607">
<rect width="38.1141" height="38.1141" fill="white" transform="translate(0.232422)"/>
</clipPath>
</defs>
</svg>
