<svg width="39" height="39" viewBox="0 0 39 39" fill="none" xmlns="http://www.w3.org/2000/svg">
<g clip-path="url(#clip0_107_2601)">
<path fill-rule="evenodd" clip-rule="evenodd" d="M5.56984 12.6372C3.12022 15.5077 0.75 18.9776 0.75 21.7369C0.75 23.329 2.08796 25.5682 5.36339 25.5682C7.13014 25.5682 8.88894 24.8575 10.2626 24.3096C12.5812 23.3806 38.1971 12.2561 38.1971 12.2561C38.4432 12.133 38.3996 11.9781 38.0899 12.0536C37.9668 12.0853 10.2031 19.6129 10.2031 19.6129C9.66711 19.7598 9.11922 19.8431 8.58721 19.8431C6.1892 19.8431 4.56935 18.6918 4.56935 16.1747C4.56935 15.198 4.87506 14.0188 5.56984 12.6372Z" fill="#2C2C2C"/>
</g>
<defs>
<clipPath id="clip0_107_2601">
<rect width="38.1141" height="38.1141" fill="white" transform="translate(0.75)"/>
</clipPath>
</defs>
</svg>
