<svg width="24" height="24" viewBox="0 0 24 24" fill="none" xmlns="http://www.w3.org/2000/svg">
<path d="M22.3594 5.15104C22.2136 5 21.9844 4.95833 21.7917 5.04687L21.7084 5.08333C21.6407 5.11458 21.573 5.14583 21.5 5.17708C21.7032 4.85417 21.8646 4.50521 21.9792 4.14583C22.0365 3.94792 21.974 3.73437 21.8073 3.60417C21.6459 3.47917 21.4167 3.46354 21.2396 3.57292C20.6719 3.91667 20.1198 4.16667 19.5573 4.34375C18.698 3.51042 17.5365 3 16.25 3C13.625 3 11.5 5.125 11.5 7.75C11.5 7.75 11.5 7.84896 11.5 8L11 7.95833C6.14067 7.38542 4.75525 4.11458 4.69796 3.97396C4.60421 3.73958 4.40109 3.56771 4.15109 3.51563C3.9063 3.46354 3.65109 3.54167 3.46879 3.71875C3.36984 3.81771 2.50005 4.73958 2.50005 6.5C2.50005 7.75521 3.05734 8.77083 3.7813 9.5625C3.44796 9.35417 3.25005 9.1875 3.24484 9.1875C3.01567 8.98438 2.68234 8.94271 2.4115 9.08333C2.13546 9.21875 1.974 9.51042 2.00525 9.81771C2.01046 9.92187 2.224 11.9271 4.5365 13.4375L4.11463 13.5104C3.85942 13.5573 3.64588 13.7344 3.55213 13.974C3.45838 14.2187 3.49484 14.4896 3.65109 14.6979C3.70317 14.7708 4.67713 16.0417 6.80213 16.7708C5.66671 17.1458 4.10942 17.5 2.25005 17.5C1.95838 17.5 1.68755 17.6719 1.56775 17.9375C1.44275 18.2083 1.48963 18.5208 1.68755 18.7448C1.76567 18.8385 3.71879 21 8.75005 21C17.1042 21 21 13.2448 21 8V7.75C21 7.67708 20.9896 7.60417 20.9896 7.53125C22.0365 6.52083 22.4271 5.76042 22.448 5.72396C22.5417 5.53125 22.5053 5.30208 22.3594 5.15104Z" fill="white"/>
</svg>
