<svg width="24" height="24" viewBox="0 0 24 24" fill="none" xmlns="http://www.w3.org/2000/svg">
<path d="M11.9271 4.25C8.75 4.25 5.80208 4.47396 4.11458 4.82813C4.11458 4.82813 4.10937 4.82813 4.10417 4.83333C2.83854 5.11458 1.64063 6.02604 1.39063 7.44792V7.45313C1.19792 8.59896 1 10.0937 1 12.25C1 14.401 1.19792 15.8542 1.44271 17.0625C1.69792 18.4427 2.86458 19.3802 4.15625 19.6667C4.16146 19.6719 4.16667 19.6719 4.17187 19.6719C5.93229 20.0208 8.79687 20.25 11.974 20.25C15.151 20.25 18.0208 20.0208 19.7813 19.6719C19.7865 19.6719 19.7917 19.6719 19.7969 19.6667C21.0677 19.3854 22.2604 18.474 22.5104 17.0521C22.5156 17.0469 22.5156 17.0469 22.5156 17.0417C22.7031 15.8698 22.9531 14.3802 23 12.2187C23 12.2135 23 12.2083 23 12.2031C23 10.0417 22.7552 8.54167 22.5104 7.34896C22.2552 5.96354 21.0885 5.02604 19.7969 4.73437C19.776 4.73437 19.7604 4.72917 19.7396 4.72396C18.0208 4.48437 15.1042 4.25 11.9271 4.25ZM10.0781 8.5C10.2656 8.49479 10.4531 8.54167 10.6354 8.64063L14.9375 11.0729C15.6615 11.4844 15.6615 12.5156 14.9375 12.9271L10.6354 15.3594C9.91667 15.7656 9.02083 15.25 9.02083 14.4323V9.56771C9.02083 8.95312 9.52083 8.51042 10.0781 8.5Z" fill="white"/>
</svg>
